<?xml version="1.0" standalone="no"?>
<!DOCTYPE svg PUBLIC "-//W3C//DTD SVG 20010904//EN"
 "http://www.w3.org/TR/2001/REC-SVG-20010904/DTD/svg10.dtd">
<svg version="1.0" xmlns="http://www.w3.org/2000/svg"
 width="300.000000pt" height="300.000000pt" viewBox="0 0 300.000000 300.000000"
 preserveAspectRatio="xMidYMid meet">
<metadata>
Created by potrace 1.11, written by Peter Selinger 2001-2013
</metadata>
<g transform="translate(0.000000,300.000000) scale(0.100000,-0.100000)"
fill="#000000" stroke="none">
<path d="M1335 2994 c-234 -26 -484 -112 -666 -229 -339 -218 -564 -560 -646
-980 -25 -130 -25 -434 1 -570 57 -307 194 -572 406 -785 211 -211 468 -344
785 -407 139 -27 454 -24 595 6 541 115 941 465 1111 972 91 273 103 621 28
904 -125 479 -478 858 -946 1014 -156 52 -271 71 -458 75 -93 2 -188 2 -210 0z
m390 -160 c549 -95 981 -516 1101 -1075 25 -116 26 -389 1 -511 -61 -303 -209
-559 -441 -766 -183 -163 -431 -279 -676 -318 -162 -26 -389 -16 -540 24 -489
127 -851 489 -983 982 -30 112 -31 121 -31 330 0 209 1 218 31 330 142 530
550 907 1088 1005 100 19 341 18 450 -1z"/>
<path d="M1277 2684 c-484 -87 -876 -485 -962 -972 -19 -110 -19 -315 0 -423
39 -224 146 -441 302 -609 l68 -73 5 728 5 728 364 -381 c200 -210 365 -382
367 -382 2 0 4 315 4 700 l0 700 -37 -1 c-21 0 -73 -7 -116 -15z"/>
<path d="M1578 1819 l-3 -883 -358 374 c-197 206 -363 377 -368 378 -6 2 -8
-228 -7 -599 l3 -603 55 -32 c85 -51 244 -110 360 -134 91 -19 128 -21 275
-17 140 3 187 9 266 30 506 134 869 580 896 1102 16 315 -80 600 -287 851
-175 212 -488 380 -762 409 l-68 7 -2 -883z m712 111 l0 -70 -280 0 -280 0 0
70 0 70 280 0 280 0 0 -70z m-170 -390 l0 -70 -195 0 -195 0 0 70 0 70 195 0
195 0 0 -70z m190 -480 l0 -70 -290 0 -290 0 0 70 0 70 290 0 290 0 0 -70z"/>
</g>
</svg>
